<svg width="450" height="457" viewBox="0 0 450 457" fill="none" xmlns="http://www.w3.org/2000/svg">
<path d="M111.364 423.317H137.18V426.9H111.364V423.317Z" fill="#1C1E26"/>
<path d="M137.18 412.567H111.364V416.15H137.18V412.567Z" fill="#1C1E26"/>
<path d="M137.18 401.817H111.364V405.4H137.18V401.817Z" fill="#1C1E26"/>
<path d="M50.2998 400.383V425.467H53.9878V400.383H50.2998Z" fill="#1C1E26"/>
<path d="M65.052 411.133H39.2358V414.717H65.052V411.133Z" fill="#1C1E26"/>
<path d="M18 397.707V393H29V434H23.617V397.707H18Z" fill="#1C1E26"/>
<path d="M75 430.339C79.7526 426.51 83.4761 423.375 86.1705 420.934C88.8649 418.456 91.1291 415.884 92.9626 413.218C94.8339 410.515 95.7692 407.868 95.7692 405.277C95.7692 402.837 95.1707 400.922 93.973 399.533C92.8131 398.106 90.9228 397.393 88.3035 397.393C85.7588 397.393 83.7755 398.2 82.3534 399.815C80.9688 401.391 80.2204 403.513 80.1081 406.179H75.1684C75.3181 401.973 76.5905 398.726 78.9854 396.435C81.3804 394.145 84.4678 393 88.2474 393C92.1016 393 95.1518 394.07 97.3971 396.21C99.6796 398.35 100.821 401.298 100.821 405.052C100.821 408.169 99.8859 411.21 98.0146 414.176C96.1811 417.104 94.0852 419.695 91.7276 421.948C89.3701 424.163 86.3578 426.754 82.6902 429.72H102V434H75V430.339Z" fill="#1C1E26"/>
<path d="M146.814 424.836V420.88L167.06 393.016H173.348V420.307H179.116V424.836H173.348V434.067H168.156V424.836H146.814ZM168.387 398.463L152.871 420.307H168.387V398.463Z" fill="#1C1E26"/>
<rect x="154" y="4" width="292" height="292" stroke="black" stroke-width="8"/>
<rect x="4" y="161" width="292" height="292" stroke="#00ADB5" stroke-width="8"/>
<path d="M230.1 22.8H233.77C234.49 22.8 235.167 22.8967 235.8 23.09C236.433 23.2833 236.947 23.61 237.34 24.07C237.733 24.53 237.93 25.17 237.93 25.99C237.93 26.5433 237.82 27.0467 237.6 27.5C237.387 27.9467 237.12 28.31 236.8 28.59C236.48 28.87 236.163 29.0367 235.85 29.09C236.103 29.11 236.383 29.19 236.69 29.33C237.003 29.47 237.3 29.67 237.58 29.93C237.867 30.19 238.1 30.5167 238.28 30.91C238.467 31.2967 238.56 31.7567 238.56 32.29C238.56 33.01 238.413 33.65 238.12 34.21C237.827 34.77 237.38 35.21 236.78 35.53C236.187 35.8433 235.433 36 234.52 36H230.1V22.8ZM231.8 34.57H234.35C234.983 34.57 235.473 34.46 235.82 34.24C236.173 34.0133 236.42 33.72 236.56 33.36C236.707 33 236.78 32.6167 236.78 32.21C236.78 31.5367 236.56 30.9933 236.12 30.58C235.68 30.1667 235.043 29.96 234.21 29.96H231.8V34.57ZM231.8 28.56H234.01C234.517 28.56 234.933 28.45 235.26 28.23C235.587 28.0033 235.83 27.7167 235.99 27.37C236.15 27.0167 236.23 26.6533 236.23 26.28C236.23 25.5133 236.003 24.98 235.55 24.68C235.103 24.38 234.503 24.23 233.75 24.23H231.8V28.56ZM240.755 22.8H248.555V24.35H242.445V28.63H248.435V30.14H242.445V34.45H248.555V36H240.755V22.8ZM254.572 31.25L250.142 22.8H252.202L255.432 29.26L258.652 22.8H260.712L256.292 31.25V36H254.572V31.25ZM262.47 29.39C262.47 30.37 262.673 31.2533 263.08 32.04C263.493 32.8267 264.06 33.4533 264.78 33.92C265.5 34.38 266.327 34.61 267.26 34.61C268.2 34.61 269.027 34.38 269.74 33.92C270.46 33.4533 271.023 32.8267 271.43 32.04C271.837 31.2533 272.04 30.37 272.04 29.39C272.04 28.41 271.837 27.53 271.43 26.75C271.023 25.9633 270.46 25.34 269.74 24.88C269.027 24.42 268.2 24.19 267.26 24.19C266.327 24.19 265.5 24.42 264.78 24.88C264.06 25.34 263.493 25.9633 263.08 26.75C262.673 27.53 262.47 28.41 262.47 29.39ZM260.7 29.39C260.7 28.43 260.863 27.5367 261.19 26.71C261.523 25.8767 261.987 25.15 262.58 24.53C263.173 23.91 263.867 23.4267 264.66 23.08C265.46 22.7333 266.327 22.56 267.26 22.56C268.2 22.56 269.067 22.7333 269.86 23.08C270.66 23.4267 271.353 23.91 271.94 24.53C272.533 25.15 272.993 25.8767 273.32 26.71C273.647 27.5367 273.81 28.43 273.81 29.39C273.81 30.3567 273.647 31.2567 273.32 32.09C273 32.9167 272.543 33.6433 271.95 34.27C271.363 34.89 270.673 35.3733 269.88 35.72C269.087 36.0667 268.213 36.24 267.26 36.24C266.307 36.24 265.427 36.0667 264.62 35.72C263.82 35.3733 263.127 34.89 262.54 34.27C261.953 33.6433 261.5 32.9167 261.18 32.09C260.86 31.2567 260.7 30.3567 260.7 29.39ZM277.413 24.42L277.523 24.44V36H275.813V22.8H278.223L285.073 34.35L284.963 34.37V22.8H286.673V36H284.243L277.413 24.42ZM289.318 22.8H292.428C293.834 22.8 294.991 23.0833 295.898 23.65C296.811 24.21 297.488 24.9867 297.928 25.98C298.368 26.9733 298.588 28.11 298.588 29.39C298.588 30.6767 298.368 31.8167 297.928 32.81C297.488 33.8033 296.814 34.5833 295.908 35.15C295.001 35.7167 293.841 36 292.428 36H289.318V22.8ZM291.018 24.36V34.44H292.288C293.328 34.44 294.178 34.2233 294.838 33.79C295.498 33.3567 295.984 32.7633 296.298 32.01C296.618 31.25 296.781 30.3833 296.788 29.41C296.788 28.43 296.631 27.5633 296.318 26.81C296.004 26.05 295.514 25.4533 294.848 25.02C294.181 24.58 293.328 24.36 292.288 24.36H291.018ZM308.475 24.35H304.915V22.8H313.755V24.35H310.195V36H308.475V24.35ZM323.657 30.15H317.327V36H315.637V22.8H317.327V28.61H323.657V22.8H325.347V36H323.657V30.15ZM328.04 22.8H335.84V24.35H329.73V28.63H335.72V30.14H329.73V34.45H335.84V36H328.04V22.8ZM344.638 29.39C344.638 30.37 344.841 31.2533 345.248 32.04C345.661 32.8267 346.228 33.4533 346.948 33.92C347.668 34.38 348.495 34.61 349.428 34.61C350.368 34.61 351.195 34.38 351.908 33.92C352.628 33.4533 353.191 32.8267 353.598 32.04C354.005 31.2533 354.208 30.37 354.208 29.39C354.208 28.41 354.005 27.53 353.598 26.75C353.191 25.9633 352.628 25.34 351.908 24.88C351.195 24.42 350.368 24.19 349.428 24.19C348.495 24.19 347.668 24.42 346.948 24.88C346.228 25.34 345.661 25.9633 345.248 26.75C344.841 27.53 344.638 28.41 344.638 29.39ZM342.868 29.39C342.868 28.43 343.031 27.5367 343.358 26.71C343.691 25.8767 344.155 25.15 344.748 24.53C345.341 23.91 346.035 23.4267 346.828 23.08C347.628 22.7333 348.495 22.56 349.428 22.56C350.368 22.56 351.235 22.7333 352.028 23.08C352.828 23.4267 353.521 23.91 354.108 24.53C354.701 25.15 355.161 25.8767 355.488 26.71C355.815 27.5367 355.978 28.43 355.978 29.39C355.978 30.3567 355.815 31.2567 355.488 32.09C355.168 32.9167 354.711 33.6433 354.118 34.27C353.531 34.89 352.841 35.3733 352.048 35.72C351.255 36.0667 350.381 36.24 349.428 36.24C348.475 36.24 347.595 36.0667 346.788 35.72C345.988 35.3733 345.295 34.89 344.708 34.27C344.121 33.6433 343.668 32.9167 343.348 32.09C343.028 31.2567 342.868 30.3567 342.868 29.39ZM357.971 22.8H362.581C363.294 22.8 363.941 22.95 364.521 23.25C365.108 23.5433 365.574 23.9767 365.921 24.55C366.274 25.1167 366.451 25.81 366.451 26.63C366.451 27.4433 366.288 28.1167 365.961 28.65C365.641 29.1833 365.254 29.5867 364.801 29.86C364.348 30.1267 363.928 30.2733 363.541 30.3L366.811 36H364.871L361.811 30.42H359.681V36H357.971V22.8ZM359.681 29.15H361.981C362.768 29.15 363.418 28.9533 363.931 28.56C364.444 28.1667 364.701 27.5367 364.701 26.67C364.701 25.8033 364.444 25.18 363.931 24.8C363.424 24.42 362.778 24.23 361.991 24.23H359.681V29.15ZM369.025 22.8H372.135C373.542 22.8 374.698 23.0833 375.605 23.65C376.518 24.21 377.195 24.9867 377.635 25.98C378.075 26.9733 378.295 28.11 378.295 29.39C378.295 30.6767 378.075 31.8167 377.635 32.81C377.195 33.8033 376.522 34.5833 375.615 35.15C374.708 35.7167 373.548 36 372.135 36H369.025V22.8ZM370.725 24.36V34.44H371.995C373.035 34.44 373.885 34.2233 374.545 33.79C375.205 33.3567 375.692 32.7633 376.005 32.01C376.325 31.25 376.488 30.3833 376.495 29.41C376.495 28.43 376.338 27.5633 376.025 26.81C375.712 26.05 375.222 25.4533 374.555 25.02C373.888 24.58 373.035 24.36 371.995 24.36H370.725ZM380.621 22.8H382.341V36H380.621V22.8ZM386.749 24.42L386.859 24.44V36H385.149V22.8H387.559L394.409 34.35L394.299 34.37V22.8H396.009V36H393.579L386.749 24.42ZM402.694 22.8H404.474L409.354 36H407.524L406.384 32.82H400.784L399.624 36H397.794L402.694 22.8ZM401.334 31.28H405.844L403.604 24.9H403.574L401.334 31.28ZM410.764 22.8H415.374C416.087 22.8 416.734 22.95 417.314 23.25C417.901 23.5433 418.367 23.9767 418.714 24.55C419.067 25.1167 419.244 25.81 419.244 26.63C419.244 27.4433 419.081 28.1167 418.754 28.65C418.434 29.1833 418.047 29.5867 417.594 29.86C417.141 30.1267 416.721 30.2733 416.334 30.3L419.604 36H417.664L414.604 30.42H412.474V36H410.764V22.8ZM412.474 29.15H414.774C415.561 29.15 416.211 28.9533 416.724 28.56C417.237 28.1667 417.494 27.5367 417.494 26.67C417.494 25.8033 417.237 25.18 416.724 24.8C416.217 24.42 415.571 24.23 414.784 24.23H412.474V29.15ZM423.733 31.25L419.302 22.8H421.363L424.592 29.26L427.813 22.8H429.872L425.453 31.25V36H423.733V31.25Z" fill="#1C1E26"/>
<line x1="154" y1="124" x2="154" y2="231" stroke="black" stroke-width="8"/>
</svg>
